<svg width="32" height="32" viewBox="0 0 32 32" fill="none" xmlns="http://www.w3.org/2000/svg">
<path d="M16 8.62651C18.3855 8.62651 18.7108 8.62651 19.6867 8.62651C20.5542 8.62651 20.988 8.84337 21.3133 8.95181C21.747 9.16868 22.0723 9.27711 22.3976 9.60241C22.7229 9.92771 22.9398 10.253 23.0482 10.6867C23.1566 11.012 23.2651 11.4458 23.3735 12.3133C23.3735 13.2892 23.3735 13.506 23.3735 16C23.3735 18.494 23.3735 18.7108 23.3735 19.6867C23.3735 20.5542 23.1566 20.988 23.0482 21.3133C22.8313 21.747 22.7229 22.0723 22.3976 22.3976C22.0723 22.7229 21.747 22.9398 21.3133 23.0482C20.988 23.1566 20.5542 23.2651 19.6867 23.3735C18.7108 23.3735 18.494 23.3735 16 23.3735C13.506 23.3735 13.2892 23.3735 12.3133 23.3735C11.4458 23.3735 11.012 23.1566 10.6867 23.0482C10.253 22.8313 9.92771 22.7229 9.60241 22.3976C9.27711 22.0723 9.06024 21.747 8.95181 21.3133C8.84337 20.988 8.73494 20.5542 8.62651 19.6867C8.62651 18.7108 8.62651 18.494 8.62651 16C8.62651 13.506 8.62651 13.2892 8.62651 12.3133C8.62651 11.4458 8.84337 11.012 8.95181 10.6867C9.16868 10.253 9.27711 9.92771 9.60241 9.60241C9.92771 9.27711 10.253 9.06024 10.6867 8.95181C11.012 8.84337 11.4458 8.73494 12.3133 8.62651C13.2892 8.62651 13.6145 8.62651 16 8.62651ZM16 7C13.506 7 13.2892 7 12.3133 7C11.3374 7 10.6867 7.21687 10.1446 7.43374C9.60241 7.6506 9.06024 7.9759 8.51807 8.51807C7.9759 9.06024 7.75904 9.49398 7.43374 10.1446C7.21687 10.6867 7.10843 11.3374 7 12.3133C7 13.2892 7 13.6145 7 16C7 18.494 7 18.7108 7 19.6867C7 20.6627 7.21687 21.3133 7.43374 21.8554C7.6506 22.3976 7.9759 22.9398 8.51807 23.4819C9.06024 24.0241 9.49398 24.241 10.1446 24.5663C10.6867 24.7831 11.3374 24.8916 12.3133 25C13.2892 25 13.6145 25 16 25C18.3855 25 18.7108 25 19.6867 25C20.6627 25 21.3133 24.7831 21.8554 24.5663C22.3976 24.3494 22.9398 24.0241 23.4819 23.4819C24.0241 22.9398 24.241 22.506 24.5663 21.8554C24.7831 21.3133 24.8916 20.6627 25 19.6867C25 18.7108 25 18.3855 25 16C25 13.6145 25 13.2892 25 12.3133C25 11.3374 24.7831 10.6867 24.5663 10.1446C24.3494 9.60241 24.0241 9.06024 23.4819 8.51807C22.9398 7.9759 22.506 7.75904 21.8554 7.43374C21.3133 7.21687 20.6627 7.10843 19.6867 7C18.7108 7 18.494 7 16 7Z" fill="black"/>
<path d="M16 11.3373C13.3976 11.3373 11.3373 13.3976 11.3373 16C11.3373 18.6024 13.3976 20.6627 16 20.6627C18.6024 20.6627 20.6627 18.6024 20.6627 16C20.6627 13.3976 18.6024 11.3373 16 11.3373ZM16 19.0361C14.3735 19.0361 12.9639 17.7349 12.9639 16C12.9639 14.3735 14.2651 12.9639 16 12.9639C17.6265 12.9639 19.0361 14.2651 19.0361 16C19.0361 17.6265 17.6265 19.0361 16 19.0361Z" fill="black"/>
<path d="M20.7711 12.3133C21.3699 12.3133 21.8554 11.8278 21.8554 11.2289C21.8554 10.6301 21.3699 10.1446 20.7711 10.1446C20.1722 10.1446 19.6867 10.6301 19.6867 11.2289C19.6867 11.8278 20.1722 12.3133 20.7711 12.3133Z" fill="black"/>
</svg>
