   <svg width="20" height="21" viewBox="0 0 20 21" fill="none" xmlns="http://www.w3.org/2000/svg">
                    <path fill-rule="evenodd" clip-rule="evenodd"
                        d="M10 19.4004C14.9705 19.4004 19 15.3709 19 10.4004C19 5.42989 14.9705 1.40039 10 1.40039C5.0295 1.40039 1 5.42989 1 10.4004C1 15.3709 5.0295 19.4004 10 19.4004ZM10 20.4004C15.523 20.4004 20 15.9234 20 10.4004C20 4.87739 15.523 0.400391 10 0.400391C4.477 0.400391 0 4.87739 0 10.4004C0 15.9234 4.477 20.4004 10 20.4004Z"
                        fill="#142946" />
                    <path
                        d="M4 16.2153C4 15.6988 4.386 15.2623 4.9 15.2053C8.7575 14.7783 11.26 14.8168 15.109 15.2148C15.3012 15.235 15.4834 15.3107 15.6333 15.4327C15.7831 15.5547 15.8942 15.7177 15.953 15.9018C16.0117 16.086 16.0156 16.2832 15.9641 16.4695C15.9126 16.6557 15.808 16.823 15.663 16.9508C11.1205 20.9103 8.5245 20.8558 4.32 16.9548C4.115 16.7648 4 16.4943 4 16.2153Z"
                        fill="#142946" />
                    <path fill-rule="evenodd" clip-rule="evenodd"
                        d="M15.0575 15.712C11.239 15.317 8.7725 15.28 4.9545 15.7025C4.82882 15.7172 4.71296 15.7777 4.6291 15.8724C4.54524 15.9671 4.49928 16.0895 4.5 16.216C4.5 16.359 4.5595 16.4945 4.66 16.5885C6.744 18.5215 8.323 19.395 9.8665 19.4005C11.4155 19.406 13.0795 18.5395 15.3345 16.5745C15.4061 16.5108 15.4577 16.4276 15.483 16.335C15.5082 16.2425 15.506 16.1446 15.4767 16.0533C15.4473 15.962 15.3921 15.8812 15.3177 15.8207C15.2433 15.7602 15.1529 15.7221 15.0575 15.712ZM4.845 14.7085C8.743 14.277 11.282 14.316 15.161 14.7175C15.4502 14.7477 15.7242 14.8615 15.9497 15.0451C16.1751 15.2286 16.3422 15.4739 16.4304 15.751C16.5185 16.028 16.524 16.3247 16.4462 16.6048C16.3683 16.8849 16.2105 17.1362 15.992 17.328C13.7045 19.322 11.7995 20.408 9.8635 20.4005C7.922 20.3935 6.101 19.289 3.9805 17.3215C3.82868 17.1801 3.70765 17.0089 3.62497 16.8186C3.5423 16.6283 3.49976 16.423 3.5 16.2155C3.49927 15.8427 3.6361 15.4828 3.88429 15.2046C4.13247 14.9265 4.47455 14.7501 4.845 14.7085Z"
                        fill="#142946" />
                    <path
                        d="M14 8.40039C14 9.46126 13.5786 10.4787 12.8284 11.2288C12.0783 11.979 11.0609 12.4004 10 12.4004C8.93913 12.4004 7.92172 11.979 7.17157 11.2288C6.42143 10.4787 6 9.46126 6 8.40039C6 7.33952 6.42143 6.32211 7.17157 5.57196C7.92172 4.82182 8.93913 4.40039 10 4.40039C11.0609 4.40039 12.0783 4.82182 12.8284 5.57196C13.5786 6.32211 14 7.33952 14 8.40039Z"
                        fill="#142946" />
                    <path fill-rule="evenodd" clip-rule="evenodd"
                        d="M10 11.4004C10.7956 11.4004 11.5587 11.0843 12.1213 10.5217C12.6839 9.9591 13 9.19604 13 8.40039C13 7.60474 12.6839 6.84168 12.1213 6.27907C11.5587 5.71646 10.7956 5.40039 10 5.40039C9.20435 5.40039 8.44129 5.71646 7.87868 6.27907C7.31607 6.84168 7 7.60474 7 8.40039C7 9.19604 7.31607 9.9591 7.87868 10.5217C8.44129 11.0843 9.20435 11.4004 10 11.4004ZM10 12.4004C11.0609 12.4004 12.0783 11.979 12.8284 11.2288C13.5786 10.4787 14 9.46126 14 8.40039C14 7.33952 13.5786 6.32211 12.8284 5.57196C12.0783 4.82182 11.0609 4.40039 10 4.40039C8.93913 4.40039 7.92172 4.82182 7.17157 5.57196C6.42143 6.32211 6 7.33952 6 8.40039C6 9.46126 6.42143 10.4787 7.17157 11.2288C7.92172 11.979 8.93913 12.4004 10 12.4004Z"
                        fill="#142946" />
                </svg>